<?xml version="1.0" encoding="UTF-8"?>
<svg version="1.1" xmlns="http://www.w3.org/2000/svg" width="512" height="65">
<path d="M0 0 C168.96 0 337.92 0 512 0 C512 21.45 512 42.9 512 65 C343.04 65 174.08 65 0 65 C0 43.55 0 22.1 0 0 Z " fill="#B3ABD0" transform="translate(0,0)"/>
<path d="M0 0 C74.91 0 149.82 0 227 0 C228 9 228 9 226 13 C225.34 13 224.68 13 224 13 C224 13.99 224 14.98 224 16 C222.02043058 17.69088222 220.02054804 19.35830472 218 21 C218 21.66 218 22.32 218 23 C221.47340125 21.6106395 222.51794756 20.38754843 224 17 C226 15 226 15 229.125 14.875 C230.07375 14.91625 231.0225 14.9575 232 15 C232.54269531 16.03640625 233.08539063 17.0728125 233.64453125 18.140625 C234.36700609 19.51051236 235.08967243 20.88029873 235.8125 22.25 C236.16892578 22.93191406 236.52535156 23.61382813 236.89257812 24.31640625 C239.84402087 30.75394702 239.84402087 30.75394702 245.1875 34.75 C245.785625 34.8325 246.38375 34.915 247 35 C248.55994099 28.01812817 249.48462048 21.13393752 250 14 C250.33 14.66 250.66 15.32 251 16 C251.66 16 252.32 16 253 16 C253.33 17.98 253.66 19.96 254 22 C256.31 22.66 258.62 23.32 261 24 C261 24.66 261 25.32 261 26 C261.99 26 262.98 26 264 26 C264 26.66 264 27.32 264 28 C265.2065625 28.433125 265.2065625 28.433125 266.4375 28.875 C269 30 269 30 270 32 C268.35 32 266.7 32 265 32 C264.67 31.01 264.34 30.02 264 29 C259.05 29.495 259.05 29.495 254 30 C250.31755862 40.26144801 250.31755862 40.26144801 249 51 C252.63 51 256.26 51 260 51 C257 54 257 54 253.9375 54.9375 C250.88613919 55.7063828 250.88613919 55.7063828 249.625 58.125 C249.41875 58.74375 249.2125 59.3625 249 60 C248.34 60 247.68 60 247 60 C246.87625 58.88625 246.7525 57.7725 246.625 56.625 C246.3534187 52.96896323 246.3534187 52.96896323 244 51 C244.375 48.375 244.375 48.375 245 46 C243.68 45.34 242.36 44.68 241 44 C241 40.7 241 37.4 241 34 C240.34 34 239.68 34 239 34 C239 33.01 239 32.02 239 31 C238.34 31 237.68 31 237 31 C236.67 29.68 236.34 28.36 236 27 C235.01 27 234.02 27 233 27 C232.01 25.515 232.01 25.515 231 24 C230.34 24.33 229.68 24.66 229 25 C227.30142159 31.36966903 228.36030445 37.68093938 230 44 C230.66 44.66 231.32 45.32 232 46 C235.16196124 49.41491814 235.56061981 52.43044597 236 57 C237.32 57.33 238.64 57.66 240 58 C240 58.66 240 59.32 240 60 C241.918125 60.185625 241.918125 60.185625 243.875 60.375 C247.28048277 60.74805758 250.58693336 61.28846921 253.9375 62 C258.93284994 63.05082715 263.91601796 63.58895464 269 64 C269 64.33 269 64.66 269 65 C180.23 65 91.46 65 0 65 C0 43.55 0 22.1 0 0 Z " fill="#B9A6CD" transform="translate(0,0)"/>
<path d="M0 0 C26.73 0 53.46 0 81 0 C81 21.45 81 42.9 81 65 C13.68 65 -53.64 65 -123 65 C-119.24172334 63.12086167 -116.45816535 62.34977698 -112.375 61.5625 C-111.73272461 61.43689697 -111.09044922 61.31129395 -110.42871094 61.18188477 C-106.66786121 60.45978367 -102.89903849 59.813105 -99.1171875 59.2109375 C-98.30717285 59.08130615 -97.4971582 58.9516748 -96.66259766 58.81811523 C-95.07748352 58.56804511 -93.49121867 58.32514351 -91.90380859 58.09008789 C-88.3128412 57.52877515 -86.06898736 57.04599157 -83 55 C-81.53284662 54.63523811 -80.05116052 54.32609082 -78.5625 54.0625 C-74.92228387 53.3121817 -72.87636968 52.39697473 -70 50 C-68.3258658 49.27782446 -66.65047337 48.55820255 -64.96484375 47.86328125 C-52.26054811 42.28147342 -37.61948488 33.93078679 -27.9921875 23.91015625 C-25.8235865 21.83085058 -23.93206753 20.87609224 -21.1875 19.6875 C-16.07596397 17.24448646 -12.73862462 14.18917682 -9 10 C-3.78436658 4.54177898 -3.78436658 4.54177898 0 3 C0 2.01 0 1.02 0 0 Z " fill="#B0ADEF" transform="translate(431,0)"/>
<path d="M0 0 C28.05 0 56.1 0 85 0 C85 5.94 85 11.88 85 18 C88.91276768 33.65107073 96.9282881 46.31426673 111 55 C117.1782281 58.32119941 123.57146623 61.20120298 130 64 C130 64.33 130 64.66 130 65 C87.1 65 44.2 65 0 65 C0 43.55 0 22.1 0 0 Z " fill="#B0B0F0" transform="translate(0,0)"/>
<path d="M0 0 C18.81 0 37.62 0 57 0 C57 0.66 57 1.32 57 2 C57.70125 1.855625 58.4025 1.71125 59.125 1.5625 C63.11187518 2.1691984 64.35929197 4.16720974 66.86328125 7.17578125 C68 9 68 9 68 12 C68.66 12 69.32 12 70 12 C70.495 15.465 70.495 15.465 71 19 C66.56406686 18.49303621 64.37566232 16.82825762 61 14 C60.34 14 59.68 14 59 14 C58.505 12.515 58.505 12.515 58 11 C54.94064724 11.66463278 54.94064724 11.66463278 53.875 13.8125 C52.94860135 15.96444119 52.94860135 15.96444119 52.5 18.1875 C52.335 18.785625 52.17 19.38375 52 20 C51.01 20.495 51.01 20.495 50 21 C50.33 21.33 50.66 21.66 51 22 C51.09823996 23.47648876 51.12973519 24.95775417 51.125 26.4375 C51.12886719 27.64212891 51.12886719 27.64212891 51.1328125 28.87109375 C51 31 51 31 50 33 C46.9375 33.625 46.9375 33.625 44 34 C43.34 35.98 42.68 37.96 42 40 C40.68 40 39.36 40 38 40 C38.598125 40.20625 39.19625 40.4125 39.8125 40.625 C42.81018767 42.50926082 43.61361776 44.81132084 45 48 C48.00384054 47.3045656 48.00384054 47.3045656 51 46 C51.78282648 44.20800528 51.78282648 44.20800528 52 42 C52.495 41.071875 52.99 40.14375 53.5 39.1875 C55.12431401 35.73583274 55.62234082 32.77659182 56 29 C56.99 28.67 57.98 28.34 59 28 C60.68359375 29.1796875 60.68359375 29.1796875 62.4375 30.875 C64.91372385 33.25704979 66.58595163 34.41473456 70 35 C70 34.34 70 33.68 70 33 C72 32.125 72 32.125 75 32 C77.14027425 33.38876111 79.04657618 34.96480332 81.015625 36.5859375 C83.03672715 38.24913518 83.03672715 38.24913518 86.1875 38.5 C90.41098745 39.25084221 91.53461165 41.59196316 94 45 C94.99 44.67 95.98 44.34 97 44 C97 44.66 97 45.32 97 46 C98.485 46.495 98.485 46.495 100 47 C99.00269864 49.4932534 98.34925469 50.77467439 96.0625 52.25 C94 53 94 53 91 53 C91 53.66 91 54.32 91 55 C93.97 53.68 96.94 52.36 100 51 C100.08004482 47.4780279 100.04005702 44.38018531 99 41 C100.485 41.495 100.485 41.495 102 42 C102 43.32 102 44.64 102 46 C103.010625 45.38125 104.02125 44.7625 105.0625 44.125 C108.63227085 42.07056045 112.009341 40.97730425 116 40 C115.67 40.99 115.34 41.98 115 43 C114.01 43 113.02 43 112 43 C112.309375 44.3921875 112.309375 44.3921875 112.625 45.8125 C113 49 113 49 111 52 C109.11090957 52.72912262 107.21820437 53.45091003 105.3046875 54.11328125 C98.08708546 56.7748239 98.08708546 56.7748239 93 62 C83.7787579 65.82317172 73.76140392 65.39930307 63.98144531 65.28125 C61.37290058 65.24997483 58.76496427 65.24025048 56.15625 65.234375 C45.68016522 65.18641581 35.47331994 65.04311441 25.25 62.5 C21.17832681 61.49712483 17.14445509 60.6452445 13 60 C13 59.34 13 58.68 13 58 C11.35 57.67 9.7 57.34 8 57 C7.34 54.03 6.68 51.06 6 48 C5.34 48 4.68 48 4 48 C-0.2344531 40.63884102 -0.60167416 31.16853821 1 23 C2.9375 23.3125 2.9375 23.3125 5 24 C5.33 24.99 5.66 25.98 6 27 C6.99 27 7.98 27 9 27 C9.33 28.32 9.66 29.64 10 31 C10.66 31 11.32 31 12 31 C12 31.99 12 32.98 12 34 C12.66 34 13.32 34 14 34 C14.62457273 37.43515002 15 40.49064814 15 44 C16.32 44.66 17.64 45.32 19 46 C18.79375 46.78375 18.5875 47.5675 18.375 48.375 C18.25125 49.24125 18.1275 50.1075 18 51 C18.66 51.66 19.32 52.32 20 53 C20.125 56.625 20.125 56.625 20 60 C20.66 60 21.32 60 22 60 C22.165 59.236875 22.33 58.47375 22.5 57.6875 C24.77068812 53.61918379 27.62538216 53.34060869 32 52 C28.7 51.67 25.4 51.34 22 51 C20.75859863 45.99654691 21.33080384 43.06085602 23.25 38.3125 C23.68828125 37.19488281 24.1265625 36.07726563 24.578125 34.92578125 C25.85346738 32.30151904 26.71417759 30.75423581 29 29 C31.9375 28.125 31.9375 28.125 35 28 C37.1875 29.4375 37.1875 29.4375 39 31 C39.99 31 40.98 31 42 31 C41.175 30.54625 40.35 30.0925 39.5 29.625 C38.675 29.08875 37.85 28.5525 37 28 C37 27.34 37 26.68 37 26 C36.01 26 35.02 26 34 26 C33.34 25.34 32.68 24.68 32 24 C31.154375 23.7525 30.30875 23.505 29.4375 23.25 C28.633125 22.8375 27.82875 22.425 27 22 C26.1875 18.875 26.1875 18.875 26 16 C25.34 16 24.68 16 24 16 C23.81824219 17.68029297 23.81824219 17.68029297 23.6328125 19.39453125 C23.46396733 20.86723636 23.29467303 22.33989004 23.125 23.8125 C23.04636719 24.55048828 22.96773437 25.28847656 22.88671875 26.04882812 C22.45539714 29.71506181 22.0803217 31.87951745 20 35 C16.99111394 34.6792558 15.43813929 34.4711286 13.33984375 32.21484375 C12.87707031 31.46332031 12.41429687 30.71179688 11.9375 29.9375 C11.43863281 29.13054688 10.93976563 28.32359375 10.42578125 27.4921875 C5 18.00821918 5 18.00821918 5 15 C-0.61514362 16.21110941 -3.0143531 17.69119255 -7 22 C-9.3125 23.3125 -9.3125 23.3125 -11 24 C-10.34 22.68 -9.68 21.36 -9 20 C-8.34 20 -7.68 20 -7 20 C-6.34 18.68 -5.68 17.36 -5 16 C-4.34 16 -3.68 16 -3 16 C-3 15.01 -3 14.02 -3 13 C-2.34 12.67 -1.68 12.34 -1 12 C-0.32585108 7.88769156 0 4.16980357 0 0 Z " fill="#9491C6" transform="translate(227,0)"/>
<path d="M0 0 C18.15 0 36.3 0 55 0 C54.67 1.32 54.34 2.64 54 4 C55.98 3.67 57.96 3.34 60 3 C59.9175 3.886875 59.835 4.77375 59.75 5.6875 C60.05918354 9.78418189 61.33560523 10.9549774 64 14 C67.12107623 19.2735426 67.12107623 19.2735426 66.625 22.25 C66.41875 22.8275 66.2125 23.405 66 24 C66.93267446 25.86534892 67.91663052 27.68169662 68.9375 29.5 C69.27652344 30.1084375 69.61554688 30.716875 69.96484375 31.34375 C71.01966545 33.16957179 71.01966545 33.16957179 73 35 C73 35.99 73 36.98 73 38 C73.680625 38.20625 74.36125 38.4125 75.0625 38.625 C78.97009851 40.45408866 81.83857939 43.10279034 85 46 C83 49 83 49 81.125 49.75 C78.80466218 50.02298092 77.21024918 49.71043724 75 49 C74.67 50.65 74.34 52.3 74 54 C74.66 54 75.32 54 76 54 C76 54.66 76 55.32 76 56 C73.69 56 71.38 56 69 56 C69 56.33 69 56.66 69 57 C67.02 57 65.04 57 63 57 C63 57.66 63 58.32 63 59 C60.69 59 58.38 59 56 59 C56 59.99 56 60.98 56 62 C57.98 62.66 59.96 63.32 62 64 C62 64.33 62 64.66 62 65 C45.86278821 66.67364168 33.2715276 61.70548129 20.3125 52.0625 C18.30078125 50.41015625 18.30078125 50.41015625 17 49 C17 48.34 17 47.68 17 47 C16.4225 46.76410156 15.845 46.52820312 15.25 46.28515625 C6.77761937 41.44589718 2.77113276 31.136285 -0.25 22.375 C-1.79391033 15.63917883 -2.17909094 6.53727283 0 0 Z " fill="#C5B4CD" transform="translate(85,0)"/>
<path d="M0 0 C4.32322461 -0.12400035 8.64549602 -0.21452256 12.9699707 -0.2746582 C14.43955525 -0.29973644 15.90901587 -0.33380856 17.37817383 -0.37719727 C19.49591681 -0.43815499 21.61200576 -0.46627316 23.73046875 -0.48828125 C25.00301514 -0.51446533 26.27556152 -0.54064941 27.58666992 -0.56762695 C31.88011508 0.1463606 33.24896854 1.72227481 36 5 C39.74118281 8.36541742 39.74118281 8.36541742 44 11 C43.67 12.65 43.34 14.3 43 16 C43.99 16.33 44.98 16.66 46 17 C46.73046875 18.84765625 46.73046875 18.84765625 47.1875 21.0625 C47.42533203 22.16271484 47.42533203 22.16271484 47.66796875 23.28515625 C47.83232422 24.13400391 47.83232422 24.13400391 48 25 C48.99 25 49.98 25 51 25 C51.99 27.97 51.99 27.97 53 31 C54.98 31 56.96 31 59 31 C59.495 31.99 59.495 31.99 60 33 C59.34 33 58.68 33 58 33 C58 33.66 58 34.32 58 35 C59.485 35.495 59.485 35.495 61 36 C60.6875 37.875 60.6875 37.875 60 40 C57.35578277 41.76281149 55.46970304 42.61714453 52.5 43.5625 C51.7265625 43.81128906 50.953125 44.06007812 50.15625 44.31640625 C49.4446875 44.54199219 48.733125 44.76757812 48 45 C46.515 45.495 46.515 45.495 45 46 C44.87625 45.360625 44.7525 44.72125 44.625 44.0625 C44.315625 43.0415625 44.315625 43.0415625 44 42 C43.01 41.505 43.01 41.505 42 41 C42.33 41.53625 42.66 42.0725 43 42.625 C44.22699204 45.5391061 44.14233286 47.86867708 44 51 C42.71086513 51.67154933 41.41859796 52.33708859 40.125 53 C39.40570313 53.37125 38.68640625 53.7425 37.9453125 54.125 C36 55 36 55 34 55 C34 54.34 34 53.68 34 53 C36.64 51.68 39.28 50.36 42 49 C42 48.34 42 47.68 42 47 C41.01 46.505 41.01 46.505 40 46 C40 45.34 40 44.68 40 44 C39.34 44 38.68 44 38 44 C37.505 44.99 37.505 44.99 37 46 C34.47411298 43.63707344 33.11179163 42.33537489 32 39 C31.154375 39.0825 30.30875 39.165 29.4375 39.25 C24.29883791 38.87627912 20.67232392 36.67232392 17 33 C15.68 33 14.36 33 13 33 C13 33.66 13 34.32 13 35 C9.43009831 34.68500867 7.45920452 33.73954766 4.8125 31.4375 C2.36839843 28.78168982 2.36839843 28.78168982 0 29 C-0.09796875 29.556875 -0.1959375 30.11375 -0.296875 30.6875 C-1.36100668 36.11824097 -2.5581745 41.54341136 -6 46 C-8.3323962 47.49473993 -10.31746313 48.17460404 -13 49 C-13.4125 47.88625 -13.825 46.7725 -14.25 45.625 C-15.35546516 43.00679305 -15.74880787 42.16506911 -18.1875 40.5625 C-19.0846875 40.2840625 -19.0846875 40.2840625 -20 40 C-19.38125 39.95875 -18.7625 39.9175 -18.125 39.875 C-17.42375 39.58625 -16.7225 39.2975 -16 39 C-14.6954344 36.00384054 -14.6954344 36.00384054 -14 33 C-11.69 33 -9.38 33 -7 33 C-6.97284617 31.25008666 -6.95353449 29.50005055 -6.9375 27.75 C-6.92589844 26.77546875 -6.91429687 25.8009375 -6.90234375 24.796875 C-6.98804423 22.34241322 -7.29293934 20.33831086 -8 18 C-7.67 18.66 -7.34 19.32 -7 20 C-6.34 20 -5.68 20 -5 20 C-5.226875 19.401875 -5.45375 18.80375 -5.6875 18.1875 C-5.790625 17.465625 -5.89375 16.74375 -6 16 C-4.6875 14.4375 -4.6875 14.4375 -3 13 C-2.34 12.01 -1.68 11.02 -1 10 C-0.01 10.33 0.98 10.66 2 11 C2 11.99 2 12.98 2 14 C2.99 13.67 3.98 13.34 5 13 C6.11375 14.2065625 6.11375 14.2065625 7.25 15.4375 C9.75304829 17.76988591 10.7180955 18.63534394 14 19 C13.505 15.535 13.505 15.535 13 12 C12.34 12 11.68 12 11 12 C9.95355934 10.36209288 8.9601817 8.68991979 8 7 C6.2313666 4.10587261 5.63010696 3.1758438 2.3125 2.25 C1.549375 2.1675 0.78625 2.085 0 2 C0 1.34 0 0.68 0 0 Z " fill="#C5ACC9" transform="translate(284,0)"/>
<path d="M0 0 C1.24546405 2.49092811 0.7767578 3.41080733 0 6 C2.31 6 4.62 6 7 6 C7 6.66 7 7.32 7 8 C7.5775 8.2475 8.155 8.495 8.75 8.75 C11 10 11 10 13 12.0625 C15.07852616 14.07607222 16.18768658 14.59824094 19 15 C19 15.66 19 16.32 19 17 C19.78375 17.12375 20.5675 17.2475 21.375 17.375 C25.9353326 18.16126424 30.46567093 19.07700416 35 20 C35 20.66 35 21.32 35 22 C36.27875 22.12375 37.5575 22.2475 38.875 22.375 C42.28048277 22.74805758 45.58693336 23.28846921 48.9375 24 C53.93284994 25.05082715 58.91601796 25.58895464 64 26 C64 26.33 64 26.66 64 27 C48.2313661 27.07017635 32.46277457 27.12303033 16.69402313 27.15543652 C9.37180857 27.17088527 2.04969122 27.19193649 -5.27246094 27.22631836 C-11.65673181 27.25628195 -18.04093227 27.27558948 -24.42527151 27.28226548 C-27.80368871 27.28616602 -31.1819045 27.29529076 -34.56025696 27.31719017 C-38.3378184 27.33899496 -42.11496379 27.34196555 -45.89257812 27.34057617 C-47.56061996 27.35675491 -47.56061996 27.35675491 -49.26235962 27.3732605 C-55.56251252 27.34821839 -60.25187642 26.62074649 -66 24 C-65.34 23.67 -64.68 23.34 -64 23 C-64 22.34 -64 21.68 -64 21 C-59.25 19.875 -59.25 19.875 -57 21 C-57 20.34 -57 19.68 -57 19 C-55.8553125 18.7834375 -55.8553125 18.7834375 -54.6875 18.5625 C-51.91827092 18.0367406 -51.91827092 18.0367406 -49 17 C-47.27467737 16.77991948 -45.54465967 16.59496906 -43.8125 16.4375 C-42.91144531 16.35371094 -42.01039063 16.26992188 -41.08203125 16.18359375 C-40.39496094 16.12300781 -39.70789063 16.06242187 -39 16 C-39 16.66 -39 17.32 -39 18 C-33.48469299 18.29962432 -29.0816581 18.42913244 -24.05078125 15.84765625 C-21.22991453 14.68169801 -18.36705482 14.21266509 -15.375 13.625 C-10.15711221 12.46546938 -7.18598886 11.5220487 -4 7 C-2.56574841 4.70041662 -1.27020656 2.39927905 0 0 Z " fill="#C3A5D1" transform="translate(205,38)"/>
<path d="M0 0 C13.53 0 27.06 0 41 0 C45 10 45 10 45 12 C45.66 12 46.32 12 47 12 C47 12.66 47 13.32 47 14 C46.01 14 45.02 14 44 14 C44 14.66 44 15.32 44 16 C44.66 16.33 45.32 16.66 46 17 C47.0625 19.8125 47.0625 19.8125 48 23 C48.226875 23.70125 48.45375 24.4025 48.6875 25.125 C49.05782538 27.34695231 48.68375122 28.87277397 48 31 C46.125 30.6875 46.125 30.6875 44 30 C42 27 42 27 42 23 C41.01 22.67 40.02 22.34 39 22 C39 20.68 39 19.36 39 18 C37.68 17.67 36.36 17.34 35 17 C35.57452746 20.93075644 35.57452746 20.93075644 38 24 C37.67 24.66 37.34 25.32 37 26 C36.01 26 35.02 26 34 26 C33.34 25.34 32.68 24.68 32 24 C31.154375 23.7525 30.30875 23.505 29.4375 23.25 C28.633125 22.8375 27.82875 22.425 27 22 C26.1875 18.875 26.1875 18.875 26 16 C25.34 16 24.68 16 24 16 C23.81824219 17.68029297 23.81824219 17.68029297 23.6328125 19.39453125 C23.46396733 20.86723636 23.29467303 22.33989004 23.125 23.8125 C23.04636719 24.55048828 22.96773437 25.28847656 22.88671875 26.04882812 C22.45539714 29.71506181 22.0803217 31.87951745 20 35 C16.99111394 34.6792558 15.43813929 34.4711286 13.33984375 32.21484375 C12.87707031 31.46332031 12.41429687 30.71179688 11.9375 29.9375 C11.43863281 29.13054688 10.93976563 28.32359375 10.42578125 27.4921875 C5 18.00821918 5 18.00821918 5 15 C-0.61514362 16.21110941 -3.0143531 17.69119255 -7 22 C-9.3125 23.3125 -9.3125 23.3125 -11 24 C-10.34 22.68 -9.68 21.36 -9 20 C-8.34 20 -7.68 20 -7 20 C-6.34 18.68 -5.68 17.36 -5 16 C-4.34 16 -3.68 16 -3 16 C-3 15.01 -3 14.02 -3 13 C-2.34 12.67 -1.68 12.34 -1 12 C-0.32585108 7.88769156 0 4.16980357 0 0 Z " fill="#867DB6" transform="translate(227,0)"/>
<path d="M0 0 C0.495 0.99 0.495 0.99 1 2 C1.66 2 2.32 2 3 2 C3.495 4.97 3.495 4.97 4 8 C6.31 8.66 8.62 9.32 11 10 C11 10.66 11 11.32 11 12 C11.99 12 12.98 12 14 12 C14 12.66 14 13.32 14 14 C15.2065625 14.433125 15.2065625 14.433125 16.4375 14.875 C19 16 19 16 20 18 C18.35 18 16.7 18 15 18 C14.505 16.515 14.505 16.515 14 15 C10.7 15.33 7.4 15.66 4 16 C0.31755862 26.26144801 0.31755862 26.26144801 -1 37 C2.63 37 6.26 37 10 37 C7 40 7 40 3.9375 40.9375 C0.88613919 41.7063828 0.88613919 41.7063828 -0.375 44.125 C-0.58125 44.74375 -0.7875 45.3625 -1 46 C-1.66 46 -2.32 46 -3 46 C-3.12375 44.88625 -3.2475 43.7725 -3.375 42.625 C-3.6465813 38.96896323 -3.6465813 38.96896323 -6 37 C-5.625 34.375 -5.625 34.375 -5 32 C-6.32 31.34 -7.64 30.68 -9 30 C-9 26.7 -9 23.4 -9 20 C-9.66 20 -10.32 20 -11 20 C-11 19.01 -11 18.02 -11 17 C-11.66 17 -12.32 17 -13 17 C-13.33 15.68 -13.66 14.36 -14 13 C-14.99 13 -15.98 13 -17 13 C-17.66 12.01 -18.32 11.02 -19 10 C-19.99 10.495 -19.99 10.495 -21 11 C-22.69857841 17.36966903 -21.63969555 23.68093938 -20 30 C-19.34 30.66 -18.68 31.32 -18 32 C-14.46253612 35.67896243 -14.40913471 39.09038349 -14 44 C-18.19469571 43.40075776 -22.00999834 42.42500059 -26 41 C-26 40.34 -26 39.68 -26 39 C-26.680625 38.95875 -27.36125 38.9175 -28.0625 38.875 C-32.18503653 37.64701039 -35.09996171 35.15076207 -38 32 C-38 31.34 -38 30.68 -38 30 C-40.31 30 -42.62 30 -45 30 C-44.58846263 25.02906176 -44.20399168 20.55491614 -42 16 C-41.34 16 -40.68 16 -40 16 C-39.8453125 14.8553125 -39.8453125 14.8553125 -39.6875 13.6875 C-38.95288806 10.81583516 -38.3283935 9.76957906 -36 8 C-35.34 8 -34.68 8 -34 8 C-33.67 7.01 -33.34 6.02 -33 5 C-32.01 5.33 -31.02 5.66 -30 6 C-30.99 6.99 -31.98 7.98 -33 9 C-29.25021921 7.88106186 -29.25021921 7.88106186 -26.8125 5 C-26.544375 4.34 -26.27625 3.68 -26 3 C-24 1 -24 1 -20.875 0.875 C-19.92625 0.91625 -18.9775 0.9575 -18 1 C-17.45730469 2.03640625 -16.91460937 3.0728125 -16.35546875 4.140625 C-15.63299391 5.51051236 -14.91032757 6.88029873 -14.1875 8.25 C-13.83107422 8.93191406 -13.47464844 9.61382812 -13.10742188 10.31640625 C-10.15597913 16.75394702 -10.15597913 16.75394702 -4.8125 20.75 C-4.214375 20.8325 -3.61625 20.915 -3 21 C-1.44005901 14.01812817 -0.51537952 7.13393752 0 0 Z " fill="#B19CC5" transform="translate(250,14)"/>
<path d="M0 0 C5.28 0 10.56 0 16 0 C16 0.66 16 1.32 16 2 C16.70125 1.855625 17.4025 1.71125 18.125 1.5625 C22.11187518 2.1691984 23.35929197 4.16720974 25.86328125 7.17578125 C27 9 27 9 27 12 C27.66 12 28.32 12 29 12 C29.495 15.465 29.495 15.465 30 19 C25.56406686 18.49303621 23.37566232 16.82825762 20 14 C19.34 14 18.68 14 18 14 C17.505 12.515 17.505 12.515 17 11 C13.94064724 11.66463278 13.94064724 11.66463278 12.875 13.8125 C11.94860135 15.96444119 11.94860135 15.96444119 11.5 18.1875 C11.335 18.785625 11.17 19.38375 11 20 C10.34 20.33 9.68 20.66 9 21 C9.33 21.33 9.66 21.66 10 22 C10.09823996 23.47648876 10.12973519 24.95775417 10.125 26.4375 C10.12886719 27.64212891 10.12886719 27.64212891 10.1328125 28.87109375 C10 31 10 31 9 33 C5.9375 33.625 5.9375 33.625 3 34 C2.34 35.98 1.68 37.96 1 40 C-0.32 40 -1.64 40 -3 40 C-2.360625 40.268125 -1.72125 40.53625 -1.0625 40.8125 C1 42 1 42 2 45 C1.34 45.99 0.68 46.98 0 48 C-0.66 47.34 -1.32 46.68 -2 46 C-2.5775 47.010625 -3.155 48.02125 -3.75 49.0625 C-5.08984375 50.73046875 -5.08984375 50.73046875 -7 52 C-11.09695029 52.23974352 -14.96732919 51.70748611 -19 51 C-20.24140137 45.99654691 -19.66919616 43.06085602 -17.75 38.3125 C-17.31171875 37.19488281 -16.8734375 36.07726563 -16.421875 34.92578125 C-15.14653262 32.30151904 -14.28582241 30.75423581 -12 29 C-9.0625 28.125 -9.0625 28.125 -6 28 C-3.8125 29.4375 -3.8125 29.4375 -2 31 C-1.01 31 -0.02 31 1 31 C0.175 30.608125 -0.65 30.21625 -1.5 29.8125 C-2.325 29.214375 -3.15 28.61625 -4 28 C-4.3125 25.3125 -4.3125 25.3125 -4 23 C-4.66 23.33 -5.32 23.66 -6 24 C-6 21.69 -6 19.38 -6 17 C-4.35 17.33 -2.7 17.66 -1 18 C-1 19.32 -1 20.64 -1 22 C-0.34 22.33 0.32 22.66 1 23 C1.474375 24.155 1.94875 25.31 2.4375 26.5 C2.953125 27.655 3.46875 28.81 4 30 C4.99 30.33 5.98 30.66 7 31 C7.34961957 26.10532595 6.41218594 23.24544725 4 19 C2.99983813 16.99967627 2.50603992 15.16874252 2 13 C3.32 13.33 4.64 13.66 6 14 C6 13.34 6 12.68 6 12 C5.34 12 4.68 12 4 12 C3.3291288 10.3767313 2.66342971 8.75132422 2 7.125 C1.62875 6.22007812 1.2575 5.31515625 0.875 4.3828125 C0 2 0 2 0 0 Z " fill="#9D94C3" transform="translate(268,0)"/>
<path d="M0 0 C14.19 0 28.38 0 43 0 C43 0.99 43 1.98 43 3 C37.65116279 8 37.65116279 8 35 8 C34.731875 8.58910156 34.46375 9.17820312 34.1875 9.78515625 C30.66103876 16.36247047 25.03450411 19.71181004 18.4453125 22.734375 C14.75950294 24.6420464 12.02248972 27.17462917 9 30 C7.88970545 26.27258257 8.16067994 24.49470812 10 21 C10.99 20.34 11.98 19.68 13 19 C13.72965366 16.43717258 13.72965366 16.43717258 14 14 C14.66 14 15.32 14 16 14 C16.66 12.35 17.32 10.7 18 9 C16.36587557 7.29159719 15.13093906 6.06546953 13 5 C11.31923769 5.63028587 9.65204456 6.29788106 8 7 C7.34 7 6.68 7 6 7 C5.01 7.66 4.02 8.32 3 9 C2.8046875 6.94921875 2.609375 4.8984375 2.4140625 2.84765625 C2.27742188 2.23792969 2.14078125 1.62820312 2 1 C1.34 0.67 0.68 0.34 0 0 Z " fill="#B29ECB" transform="translate(388,0)"/>
<path d="M0 0 C0 0.99 0 1.98 0 3 C-0.99 3 -1.98 3 -3 3 C-2.79375 3.928125 -2.5875 4.85625 -2.375 5.8125 C-2 9 -2 9 -4 12 C-5.88909043 12.72912262 -7.78179563 13.45091003 -9.6953125 14.11328125 C-16.91291454 16.7748239 -16.91291454 16.7748239 -22 22 C-28.98578579 24.89524962 -36.46932435 25.35525125 -43.9375 25.5 C-44.75395996 25.5304541 -45.57041992 25.5609082 -46.41162109 25.59228516 C-50.79663833 25.59500034 -52.44382695 25.46620388 -55.921875 22.55078125 C-56.60765625 21.70902344 -57.2934375 20.86726563 -58 20 C-60.16620544 18.70480005 -60.16620544 18.70480005 -62 18 C-61.505 16.515 -61.505 16.515 -61 15 C-58.69 15.33 -56.38 15.66 -54 16 C-54 15.01 -54 14.02 -54 13 C-52.02 13 -50.04 13 -48 13 C-48 13.99 -48 14.98 -48 16 C-47.01 16 -46.02 16 -45 16 C-44.34 15.34 -43.68 14.68 -43 14 C-41.948125 14.350625 -40.89625 14.70125 -39.8125 15.0625 C-36.2045319 15.94970527 -34.47367511 16.05262882 -31 15 C-31 14.34 -31 13.68 -31 13 C-27.535 12.505 -27.535 12.505 -24 12 C-24 12.99 -24 13.98 -24 15 C-21.03 13.68 -18.06 12.36 -15 11 C-14.91995518 7.4780279 -14.95994298 4.38018531 -16 1 C-15.01 1.33 -14.02 1.66 -13 2 C-13 3.32 -13 4.64 -13 6 C-11.96875 5.38125 -10.9375 4.7625 -9.875 4.125 C-6.68527517 2.29301955 -3.54111979 1.0364253 0 0 Z " fill="#8B86C3" transform="translate(342,40)"/>
<path d="M0 0 C0.556875 0.28875 1.11375 0.5775 1.6875 0.875 C4.08494645 2.0413253 6.51596939 3.0339881 9 4 C9 4.66 9 5.32 9 6 C9.78375 6.12375 10.5675 6.2475 11.375 6.375 C15.9353326 7.16126424 20.46567093 8.07700416 25 9 C25 9.66 25 10.32 25 11 C26.918125 11.185625 26.918125 11.185625 28.875 11.375 C32.28048277 11.74805758 35.58693336 12.28846921 38.9375 13 C43.93284994 14.05082715 48.91601796 14.58895464 54 15 C54 15.33 54 15.66 54 16 C29.25 16 4.5 16 -21 16 C-11 8 -11 8 -7 8 C-7 7.34 -7 6.68 -7 6 C-6.34 6 -5.68 6 -5 6 C-4.67 5.01 -4.34 4.02 -4 3 C-1.9375 1.3125 -1.9375 1.3125 0 0 Z " fill="#B9B2F2" transform="translate(215,49)"/>
<path d="M0 0 C0.66 0 1.32 0 2 0 C3.14982602 4.09003859 3.11094256 8.03177051 3.0625 12.25 C3.05798828 12.99507812 3.05347656 13.74015625 3.04882812 14.5078125 C3.03709246 16.3385764 3.0191585 18.16929873 3 20 C2.01 20.33 1.02 20.66 0 21 C-0.91428339 22.90708843 -0.91428339 22.90708843 -1 25 C-0.34 25.66 0.32 26.32 1 27 C1 27.99 1 28.98 1 30 C1.66 30 2.32 30 3 30 C3.33 29.34 3.66 28.68 4 28 C4.99 28 5.98 28 7 28 C6.49396008 30.16874252 6.00016187 31.99967627 5 34 C1.99111394 33.6792558 0.43813929 33.4711286 -1.66015625 31.21484375 C-2.12292969 30.46332031 -2.58570313 29.71179688 -3.0625 28.9375 C-3.56136719 28.13054688 -4.06023437 27.32359375 -4.57421875 26.4921875 C-10 17.00821918 -10 17.00821918 -10 14 C-15.61514362 15.21110941 -18.0143531 16.69119255 -22 21 C-24.3125 22.3125 -24.3125 22.3125 -26 23 C-25.34 21.68 -24.68 20.36 -24 19 C-23.34 19 -22.68 19 -22 19 C-21.34 17.68 -20.68 16.36 -20 15 C-19.34 15 -18.68 15 -18 15 C-18 14.01 -18 13.02 -18 12 C-17.34 11.67 -16.68 11.34 -16 11 C-15.27306096 9.02111039 -14.60183749 7.02045442 -14 5 C-13.01 5.33 -12.02 5.66 -11 6 C-11.33 7.32 -11.66 8.64 -12 10 C-11.01 10 -10.02 10 -9 10 C-8.979375 9.071875 -8.95875 8.14375 -8.9375 7.1875 C-8.628125 6.135625 -8.31875 5.08375 -8 4 C-4.5 2.1875 -4.5 2.1875 -1 1 C-0.67 0.67 -0.34 0.34 0 0 Z " fill="#8B84BB" transform="translate(242,1)"/>
<path d="M0 0 C1.24546405 2.49092811 0.7767578 3.41080733 0 6 C2.31 6 4.62 6 7 6 C7 6.66 7 7.32 7 8 C8.32 8.66 9.64 9.32 11 10 C10.04882866 11.1725131 9.08882991 12.33787015 8.125 13.5 C7.59132812 14.1496875 7.05765625 14.799375 6.5078125 15.46875 C6.01023438 15.9740625 5.51265625 16.479375 5 17 C4.34 17 3.68 17 3 17 C3 17.66 3 18.32 3 19 C2.40832031 19.32613281 1.81664062 19.65226562 1.20703125 19.98828125 C0.41683594 20.42527344 -0.37335938 20.86226562 -1.1875 21.3125 C-2.01507813 21.76625 -2.84265625 22.22 -3.6953125 22.6875 C-6.09368928 24.0036161 -6.09368928 24.0036161 -8.5625 25.8125 C-12.13461606 27.55276167 -15.05427981 27.20062984 -19 27 C-13.71306632 18.07288247 -13.71306632 18.07288247 -10 15 C-9.34 15 -8.68 15 -8 15 C-7.896875 14.236875 -7.79375 13.47375 -7.6875 12.6875 C-6.91069495 9.65089843 -6.19662459 9.11526813 -4 7 C-2.57084038 4.71231643 -1.29575205 2.36809857 0 0 Z " fill="#C595D1" transform="translate(205,38)"/>
<path d="M0 0 C5.28 0 10.56 0 16 0 C16 0.66 16 1.32 16 2 C17.051875 1.7834375 17.051875 1.7834375 18.125 1.5625 C22.11187518 2.1691984 23.35929197 4.16720974 25.86328125 7.17578125 C27 9 27 9 27 12 C27.66 12 28.32 12 29 12 C29.33 14.31 29.66 16.62 30 19 C25.56406686 18.49303621 23.37566232 16.82825762 20 14 C19.34 14 18.68 14 18 14 C18 12.35 18 10.7 18 9 C16.68 9 15.36 9 14 9 C11.98504093 8.38001259 9.9812585 7.72045764 8 7 C7.67 7.99 7.34 8.98 7 10 C6.34 10 5.68 10 5 10 C4.67 10.66 4.34 11.32 4 12 C3.3291288 10.3767313 2.66342971 8.75132422 2 7.125 C1.62875 6.22007812 1.2575 5.31515625 0.875 4.3828125 C0 2 0 2 0 0 Z " fill="#A988AE" transform="translate(268,0)"/>
<path d="M0 0 C0.66 0.66 1.32 1.32 2 2 C2.99 2.33 3.98 2.66 5 3 C4.4375 4.875 4.4375 4.875 3 7 C-0.625 8.25 -0.625 8.25 -4 9 C-4 11.97 -4 14.94 -4 18 C-3.34 18 -2.68 18 -2 18 C-2 18.66 -2 19.32 -2 20 C-5.06246747 21.78409802 -7.22079273 22.22880021 -10.75 22.125 C-11.54921875 22.10695313 -12.3484375 22.08890625 -13.171875 22.0703125 C-13.77515625 22.04710938 -14.3784375 22.02390625 -15 22 C-16.24140137 16.99654691 -15.66919616 14.06085602 -13.75 9.3125 C-13.31171875 8.19488281 -12.8734375 7.07726562 -12.421875 5.92578125 C-11.14986448 3.30837498 -10.27006635 1.76228835 -8 0 C-4.67259596 -0.99822121 -3.34955444 -1.11651815 0 0 Z " fill="#9891C1" transform="translate(264,29)"/>
<path d="M0 0 C1.9375 0.3125 1.9375 0.3125 4 1 C4.33 1.99 4.66 2.98 5 4 C5.99 4 6.98 4 8 4 C8.33 5.32 8.66 6.64 9 8 C9.66 8 10.32 8 11 8 C11.33 9.65 11.66 11.3 12 13 C11.01 13 10.02 13 9 13 C9.2165625 13.61488281 9.433125 14.22976562 9.65625 14.86328125 C9.9346875 15.67152344 10.213125 16.47976562 10.5 17.3125 C10.7784375 18.11300781 11.056875 18.91351563 11.34375 19.73828125 C12 22 12 22 12 25 C11.34 25 10.68 25 10 25 C10.33 27.64 10.66 30.28 11 33 C8.39767916 30.5277952 6.20690342 27.82759501 4 25 C3.48953125 24.41605469 2.9790625 23.83210938 2.453125 23.23046875 C-1.75986124 16.76376138 -1.43843878 7.33603779 0 0 Z " fill="#928BBD" transform="translate(228,23)"/>
<path d="M0 0 C2.6058889 -0.13494246 5.20482111 -0.23402299 7.8125 -0.3125 C8.55048828 -0.35439453 9.28847656 -0.39628906 10.04882812 -0.43945312 C12.20703125 -0.48828125 12.20703125 -0.48828125 16 0 C17.90625 2.4375 17.90625 2.4375 19 5 C19.556875 5.433125 20.11375 5.86625 20.6875 6.3125 C22.93648735 9.20405516 22.1750168 12.44132511 22 16 C21.34 16 20.68 16 20 16 C20 16.99 20 17.98 20 19 C20.66 19 21.32 19 22 19 C22 19.66 22 20.32 22 21 C21.154375 21.37125 20.30875 21.7425 19.4375 22.125 C15.45316122 24.2982757 12.33363816 26.95238405 9 30 C7.88970545 26.27258257 8.16067994 24.49470812 10 21 C10.99 20.34 11.98 19.68 13 19 C13.72965366 16.43717258 13.72965366 16.43717258 14 14 C14.66 14 15.32 14 16 14 C16.66 12.35 17.32 10.7 18 9 C16.36587557 7.29159719 15.13093906 6.06546953 13 5 C11.31923769 5.63028587 9.65204456 6.29788106 8 7 C7.34 7 6.68 7 6 7 C5.01 7.66 4.02 8.32 3 9 C2.8046875 6.94921875 2.609375 4.8984375 2.4140625 2.84765625 C2.27742188 2.23792969 2.14078125 1.62820312 2 1 C1.34 0.67 0.68 0.34 0 0 Z " fill="#918CC2" transform="translate(388,0)"/>
<path d="M0 0 C3.96 0 7.92 0 12 0 C16 9.75 16 9.75 16 12 C16.66 12 17.32 12 18 12 C18 12.66 18 13.32 18 14 C17.01 14 16.02 14 15 14 C15 14.66 15 15.32 15 16 C15.66 16.33 16.32 16.66 17 17 C16.34 18.32 15.68 19.64 15 21 C14.01 20.67 13.02 20.34 12 20 C10.9375 17.625 10.9375 17.625 10 15 C8.16343011 12.03268602 8.16343011 12.03268602 6 10 C5.01 10.495 5.01 10.495 4 11 C4.20625 10.236875 4.4125 9.47375 4.625 8.6875 C5.33391203 5.78114056 5.33391203 5.78114056 3 3 C3.33 2.34 3.66 1.68 4 1 C3.01 1.33 2.02 1.66 1 2 C0.67 1.34 0.34 0.68 0 0 Z " fill="#837DB6" transform="translate(256,0)"/>
<path d="M0 0 C5.61 0 11.22 0 17 0 C21.57142857 8.28571429 21.57142857 8.28571429 21 14 C18.66666667 11.66666667 16.33333333 9.33333333 14 7 C11.05892877 6.10876629 9.58156938 5.84695543 6.625 6.625 C4 7 4 7 1 5 C0.01 5.33 -0.98 5.66 -2 6 C-2 5.01 -2 4.02 -2 3 C-1.34 3 -0.68 3 0 3 C0 2.01 0 1.02 0 0 Z " fill="#A8A0CB" transform="translate(179,0)"/>
<path d="M0 0 C0 0.99 0 1.98 0 3 C-0.99 3 -1.98 3 -3 3 C-2.79375 3.928125 -2.5875 4.85625 -2.375 5.8125 C-2 9 -2 9 -4 12 C-5.734375 12.87890625 -5.734375 12.87890625 -7.75 13.5625 C-8.45640625 13.80742188 -9.1628125 14.05234375 -9.890625 14.3046875 C-10.58671875 14.53414062 -11.2828125 14.76359375 -12 15 C-13.155 15.391875 -14.31 15.78375 -15.5 16.1875 C-16.325 16.455625 -17.15 16.72375 -18 17 C-17.625 14.5625 -17.625 14.5625 -17 12 C-16.34 11.67 -15.68 11.34 -15 11 C-14.91995518 7.4780279 -14.95994298 4.38018531 -16 1 C-15.01 1.33 -14.02 1.66 -13 2 C-13 3.32 -13 4.64 -13 6 C-11.96875 5.38125 -10.9375 4.7625 -9.875 4.125 C-6.68527517 2.29301955 -3.54111979 1.0364253 0 0 Z " fill="#8D84BE" transform="translate(342,40)"/>
<path d="M0 0 C0.33 5.28 0.66 10.56 1 16 C0.01 16.33 -0.98 16.66 -2 17 C-2 16.01 -2 15.02 -2 14 C-3.65 14.33 -5.3 14.66 -7 15 C-7.99 11.37 -8.98 7.74 -10 4 C-4.5 -1.125 -4.5 -1.125 0 0 Z " fill="#938FC4" transform="translate(244,5)"/>
<path d="M0 0 C1.65 0 3.3 0 5 0 C5 0.66 5 1.32 5 2 C5.99 2.66 6.98 3.32 8 4 C8 4.66 8 5.32 8 6 C9.32 6.33 10.64 6.66 12 7 C12 7.33 12 7.66 12 8 C10.35 8 8.7 8 7 8 C7 7.01 7 6.02 7 5 C6.01 5.66 5.02 6.32 4 7 C3.01 7 2.02 7 1 7 C1 7.66 1 8.32 1 9 C-5.05525768 10.38766322 -8.32010626 9.49118146 -14 7 C-13.34 6.67 -12.68 6.34 -12 6 C-12 5.34 -12 4.68 -12 4 C-7.25 2.875 -7.25 2.875 -5 4 C-5 3.34 -5 2.68 -5 2 C-3.35 1.67 -1.7 1.34 0 1 C0 0.67 0 0.34 0 0 Z " fill="#BAA9CD" transform="translate(153,55)"/>
<path d="M0 0 C4.875 4.625 4.875 4.625 6 8 C7.65 8.33 9.3 8.66 11 9 C11.33 10.65 11.66 12.3 12 14 C12.66 14 13.32 14 14 14 C14.33 14.66 14.66 15.32 15 16 C15.99 16 16.98 16 18 16 C18 16.99 18 17.98 18 19 C19.65 19 21.3 19 23 19 C23.33 17.02 23.66 15.04 24 13 C30.15234375 13.5859375 30.15234375 13.5859375 32 14 C32.495 14.99 32.495 14.99 33 16 C32.505 17.485 32.505 17.485 32 19 C30.35 18.34 28.7 17.68 27 17 C26.731875 17.639375 26.46375 18.27875 26.1875 18.9375 C25 21 25 21 22 22 C15.36217189 19.86588675 8.14341191 15.10425172 4.1875 9.375 C3.795625 8.59125 3.40375 7.8075 3 7 C2.443125 6.29875 1.88625 5.5975 1.3125 4.875 C0 3 0 3 0 0 Z " fill="#AB9EC8" transform="translate(152,26)"/>
<path d="M0 0 C3.55482252 -0.32316568 5.37575119 -0.45553291 8.3125 1.6875 C10.14301602 4.19598492 10.66009204 5.94082833 11 9 C11.66 9 12.32 9 13 9 C12.45912682 12.78611227 10.88277668 14.55400767 8 17 C7.34 17 6.68 17 6 17 C5.67 17.99 5.34 18.98 5 20 C4.31510748 17.68848773 4.0032854 15.86529862 4.0625 13.4375 C4.21001775 10.73740376 4.21001775 10.73740376 2 8 C1.18220159 5.35982365 0.6190511 2.69729409 0 0 Z " fill="#C7A6BB" transform="translate(309,0)"/>
<path d="M0 0 C0.99 0.33 1.98 0.66 3 1 C2.01 3.31 1.02 5.62 0 8 C-1.32 8 -2.64 8 -4 8 C-3.360625 8.268125 -2.72125 8.53625 -2.0625 8.8125 C0 10 0 10 1 13 C0.01 14.485 0.01 14.485 -1 16 C-1.66 15.34 -2.32 14.68 -3 14 C-4.65 15.98 -6.3 17.96 -8 20 C-8.99 19.34 -9.98 18.68 -11 18 C-9.68 17.67 -8.36 17.34 -7 17 C-7 16.34 -7 15.68 -7 15 C-7.99 15.33 -8.98 15.66 -10 16 C-10.02688151 14.35425434 -10.04634123 12.70838587 -10.0625 11.0625 C-10.07410156 10.14597656 -10.08570313 9.22945312 -10.09765625 8.28515625 C-10 6 -10 6 -9 5 C-7.00041636 4.95919217 -4.99954746 4.95745644 -3 5 C-2.67 4.34 -2.34 3.68 -2 3 C-1.34 2.01 -0.68 1.02 0 0 Z " fill="#9D99C4" transform="translate(269,32)"/>
<path d="M0 0 C1.24546405 2.49092811 0.7767578 3.41080733 0 6 C2.31 6 4.62 6 7 6 C7 6.66 7 7.32 7 8 C8.32 8.66 9.64 9.32 11 10 C10.67 10.66 10.34 11.32 10 12 C7.68060793 12.7136591 5.34476551 13.3747292 3 14 C2.0925 14.391875 1.185 14.78375 0.25 15.1875 C-2 16 -2 16 -5 15 C-3.66666667 11.66666667 -2.33333333 8.33333333 -1 5 C-1.66 4.67 -2.32 4.34 -3 4 C-2.01 2.68 -1.02 1.36 0 0 Z " fill="#BE8CCB" transform="translate(205,38)"/>
<path d="M0 0 C2.31 0.66 4.62 1.32 7 2 C7 4.64 7 7.28 7 10 C10.63 10 14.26 10 18 10 C15 13 15 13 11.9375 13.9375 C8.88613919 14.7063828 8.88613919 14.7063828 7.625 17.125 C7.41875 17.74375 7.2125 18.3625 7 19 C6.34 19 5.68 19 5 19 C4.87625 17.88625 4.7525 16.7725 4.625 15.625 C4.3534187 11.96896323 4.3534187 11.96896323 2 10 C2.375 7.375 2.375 7.375 3 5 C1.68 4.34 0.36 3.68 -1 3 C-0.67 2.01 -0.34 1.02 0 0 Z " fill="#A99BC3" transform="translate(242,41)"/>
<path d="M0 0 C5.57142857 5.14285714 5.57142857 5.14285714 6 9 C6.66 9 7.32 9 8 9 C8.33 11.31 8.66 13.62 9 16 C4.56406686 15.49303621 2.37566232 13.82825762 -1 11 C-1.66 11 -2.32 11 -3 11 C-3 10.34 -3 9.68 -3 9 C-2.34 9 -1.68 9 -1 9 C-0.67 7.68 -0.34 6.36 0 5 C-0.66 5 -1.32 5 -2 5 C-2 3.68 -2 2.36 -2 1 C-1.34 0.67 -0.68 0.34 0 0 Z " fill="#9D93C1" transform="translate(289,3)"/>
<path d="M0 0 C2.10827055 3.16240582 2.33817465 4.50657469 2.625 8.1875 C2.69976562 9.08855469 2.77453125 9.98960938 2.8515625 10.91796875 C2.90054687 11.60503906 2.94953125 12.29210938 3 13 C-0.54470259 12.70460812 -1.78215295 12.22373481 -4.3125 9.625 C-6 7 -6 7 -6 4 C-6.99 3.67 -7.98 3.34 -9 3 C-9 2.34 -9 1.68 -9 1 C-5.73842267 -0.08719244 -3.41589896 -0.29071481 0 0 Z " fill="#BFB2CD" transform="translate(309,0)"/>
<path d="M0 0 C6.27 0 12.54 0 19 0 C18.01 0.33 17.02 0.66 16 1 C16.495 1.45375 16.99 1.9075 17.5 2.375 C19 4 19 4 19 6 C18.13375 6.185625 18.13375 6.185625 17.25 6.375 C14.97664233 7.00648824 13.0746471 7.88858191 11 9 C6.125 5.25 6.125 5.25 5 3 C2.47266765 2.34444881 2.47266765 2.34444881 0 2 C0 1.34 0 0.68 0 0 Z " fill="#B9A2C4" transform="translate(284,0)"/>
<path d="M0 0 C3 0 3 0 4.67578125 1.546875 C6.48384368 4.89632398 6.29253142 7.46886871 6.1875 11.25 C6.14689453 13.14492188 6.14689453 13.14492188 6.10546875 15.078125 C6.07066406 16.04234375 6.03585938 17.0065625 6 18 C5.67 17.34 5.34 16.68 5 16 C4.34 16 3.68 16 3 16 C2.67 18.97 2.34 21.94 2 25 C-0.48917634 21.26623548 -0.1904728 18.42953952 -0.0625 14.125 C0.04861747 9.60622289 -0.04667484 5.43760208 -1 1 C-0.67 0.67 -0.34 0.34 0 0 Z " fill="#A388B8" transform="translate(248,0)"/>
<path d="M0 0 C1.98 0.495 1.98 0.495 4 1 C6 7.75 6 7.75 6 10 C6.64097297 12.00838196 7.30899447 14.00827818 8 16 C8.33 16.99 8.66 17.98 9 19 C8.34 19.99 7.68 20.98 7 22 C6.67 20.68 6.34 19.36 6 18 C5.34 18 4.68 18 4 18 C3.731875 17.071875 3.46375 16.14375 3.1875 15.1875 C2.30142809 12.0431311 2.30142809 12.0431311 0.40625 10.59375 C-1 9 -1 9 -1.07421875 6.73828125 C-0.94660156 5.93777344 -0.81898438 5.13726562 -0.6875 4.3125 C-0.56761719 3.50425781 -0.44773438 2.69601563 -0.32421875 1.86328125 C-0.21722656 1.24839844 -0.11023438 0.63351563 0 0 Z " fill="#8B87BC" transform="translate(228,23)"/>
<path d="M0 0 C1.11375 0.350625 2.2275 0.70125 3.375 1.0625 C6.80264476 2.37239331 6.80264476 2.37239331 9 1 C9 1.66 9 2.32 9 3 C9.66 3 10.32 3 11 3 C10.67 3.66 10.34 4.32 10 5 C9.01 5.33 8.02 5.66 7 6 C5.4161808 8.55170871 4.62655832 11.07606119 4 14 C2.68 14.33 1.36 14.66 0 15 C-0.75241109 11.34543185 -1.40049704 7.68266103 -2 4 C-1.34 4 -0.68 4 0 4 C0 2.68 0 1.36 0 0 Z " fill="#B794B7" transform="translate(275,6)"/>
<path d="M0 0 C1.485 0.99 1.485 0.99 3 2 C2.01 2 1.02 2 0 2 C0 1.34 0 0.68 0 0 Z M-1 2 C0 4 0 4 0 7 C-0.33 7.66 -0.66 8.32 -1 9 C-1.99 9 -2.98 9 -4 9 C-4 10.65 -4 12.3 -4 14 C-9.75 14.125 -9.75 14.125 -12 13 C-12 11.02 -12 9.04 -12 7 C-10.93458984 6.58427734 -10.93458984 6.58427734 -9.84765625 6.16015625 C-8.46900391 5.61681641 -8.46900391 5.61681641 -7.0625 5.0625 C-6.14597656 4.70285156 -5.22945313 4.34320313 -4.28515625 3.97265625 C-2.07581467 3.2003782 -2.07581467 3.2003782 -1 2 Z " fill="#9188C4" transform="translate(263,48)"/>
<path d="M0 0 C1.24546405 2.49092811 0.7767578 3.41080733 0 6 C-0.66 6 -1.32 6 -2 6 C-2.103125 6.515625 -2.20625 7.03125 -2.3125 7.5625 C-3.2499528 10.8861963 -4.47923874 13.89998666 -6 17 C-6.99 17.33 -7.98 17.66 -9 18 C-8.58846263 13.02906176 -8.20399168 8.55491614 -6 4 C-5.34 4 -4.68 4 -4 4 C-3.67 3.34 -3.34 2.68 -3 2 C-2.01 1.34 -1.02 0.68 0 0 Z " fill="#A887BA" transform="translate(214,26)"/>
<path d="M0 0 C2.8125 -0.3125 2.8125 -0.3125 6 0 C8.31141604 2.85074644 9 4.3139451 9 8 C9.66 8 10.32 8 11 8 C13.39073445 11.82517513 13.55966552 15.59665524 14 20 C13.34 20 12.68 20 12 20 C11.71125 19.236875 11.4225 18.47375 11.125 17.6875 C9.83123466 14.59683836 8.3700267 12.3700267 6 10 C5.01 10.495 5.01 10.495 4 11 C4.20625 10.236875 4.4125 9.47375 4.625 8.6875 C5.33391203 5.78114056 5.33391203 5.78114056 3 3 C3.33 2.34 3.66 1.68 4 1 C3.01 1.33 2.02 1.66 1 2 C0.67 1.34 0.34 0.68 0 0 Z " fill="#7C73B0" transform="translate(256,0)"/>
<path d="M0 0 C1.65 0 3.3 0 5 0 C5 0.66 5 1.32 5 2 C6.65 2 8.3 2 10 2 C10 2.66 10 3.32 10 4 C9.34 4 8.68 4 8 4 C8.99 5.485 8.99 5.485 10 7 C10.33 7.66 10.66 8.32 11 9 C10.34 9 9.68 9 9 9 C9 9.99 9 10.98 9 12 C8.34 12 7.68 12 7 12 C7 11.01 7 10.02 7 9 C5.02 8.34 3.04 7.68 1 7 C0.67 4.69 0.34 2.38 0 0 Z " fill="#8577AD" transform="translate(279,0)"/>
<path d="M0 0 C0.99 0.33 1.98 0.66 3 1 C3.33 3.64 3.66 6.28 4 9 C2.948125 9.226875 1.89625 9.45375 0.8125 9.6875 C-3.18855932 10.80876461 -5.18407116 12.9557526 -8 16 C-10.3125 17.3125 -10.3125 17.3125 -12 18 C-11.34 16.68 -10.68 15.36 -10 14 C-9.34 14 -8.68 14 -8 14 C-7.34 12.68 -6.68 11.36 -6 10 C-5.34 10 -4.68 10 -4 10 C-4 9.01 -4 8.02 -4 7 C-3.34 6.67 -2.68 6.34 -2 6 C-1.27306096 4.02111039 -0.60183749 2.02045442 0 0 Z " fill="#A388B7" transform="translate(228,6)"/>
<path d="M0 0 C0.99 0 1.98 0 3 0 C3.11928251 8.62242152 3.11928251 8.62242152 0.375 12 C-1.36031879 13.45542866 -3.09516071 14.7765262 -5 16 C-6.11029455 12.27258257 -5.83932006 10.49470812 -4 7 C-3.01 6.34 -2.02 5.68 -1 5 C-0.27034634 2.43717258 -0.27034634 2.43717258 0 0 Z " fill="#827EC3" transform="translate(402,14)"/>
<path d="M0 0 C2.66666667 0.66666667 5.33333333 1.33333333 8 2 C8 2.99 8 3.98 8 5 C8.66 5 9.32 5 10 5 C10 5.99 10 6.98 10 8 C8.68 8 7.36 8 6 8 C6 7.34 6 6.68 6 6 C5.236875 6.226875 4.47375 6.45375 3.6875 6.6875 C2.800625 6.790625 1.91375 6.89375 1 7 C-0.8125 5.5625 -0.8125 5.5625 -2 4 C-1.34 2.68 -0.68 1.36 0 0 Z " fill="#AD9FCA" transform="translate(160,48)"/>
<path d="M0 0 C-7.51479821 6.032287 -7.51479821 6.032287 -11.15625 5.953125 C-13.0625 5.375 -13.0625 5.375 -16 4 C-16 3.01 -16 2.02 -16 1 C-4.73730482 -1.38905655 -4.73730482 -1.38905655 0 0 Z " fill="#B5A6D4" transform="translate(390,35)"/>
<path d="M0 0 C0.99 0.33 1.98 0.66 3 1 C3 2.32 3 3.64 3 5 C5.31 4.01 7.62 3.02 10 2 C11.09658936 5.28976808 10.79953138 6.71303767 10 10 C8.02 10 6.04 10 4 10 C4 9.01 4 8.02 4 7 C3.34 7 2.68 7 2 7 C1.34 4.69 0.68 2.38 0 0 Z " fill="#A696C5" transform="translate(326,41)"/>
<path d="M0 0 C0.804375 0.4640625 0.804375 0.4640625 1.625 0.9375 C4.3984957 2.17827439 7.00042837 2.5909675 10 3 C6.67692308 7.8 6.67692308 7.8 3.25 8.8125 C2.5075 8.874375 1.765 8.93625 1 9 C1 8.34 1 7.68 1 7 C0.01 7.33 -0.98 7.66 -2 8 C-2 6.35 -2 4.7 -2 3 C-1.01 3 -0.02 3 1 3 C0.67 2.01 0.34 1.02 0 0 Z " fill="#AF9CCC" transform="translate(370,36)"/>
<path d="M0 0 C0.99 0.99 1.98 1.98 3 3 C2.67 3.99 2.34 4.98 2 6 C-1.96 6.66 -5.92 7.32 -10 8 C-7.95874182 3.91748364 -7.69699058 3.47606026 -3.875 1.75 C-3.15054687 1.41484375 -2.42609375 1.0796875 -1.6796875 0.734375 C-1.12539063 0.49203125 -0.57109375 0.2496875 0 0 Z " fill="#A797CB" transform="translate(330,54)"/>
<path d="M0 0 C0.99 0.33 1.98 0.66 3 1 C1.75 4.4375 1.75 4.4375 0 8 C-1.875 8.875 -1.875 8.875 -4 9 C-6.63804589 9.39397335 -6.63804589 9.39397335 -9 10 C-9.33 10.66 -9.66 11.32 -10 12 C-10.04254356 10.00045254 -10.04080783 7.99958364 -10 6 C-9 5 -9 5 -5.9375 4.9375 C-4.4834375 4.9684375 -4.4834375 4.9684375 -3 5 C-2.67 4.34 -2.34 3.68 -2 3 C-1.34 2.01 -0.68 1.02 0 0 Z " fill="#A69FC7" transform="translate(269,32)"/>
<path d="M0 0 C0.99 0.66 1.98 1.32 3 2 C2.67 4.31 2.34 6.62 2 9 C2.66 9 3.32 9 4 9 C4 9.66 4 10.32 4 11 C2.02 11.66 0.04 12.32 -2 13 C-3.18771723 9.57056481 -2.80226223 7.62215325 -1.5625 4.25 C-1.27503906 3.45078125 -0.98757813 2.6515625 -0.69140625 1.828125 C-0.46324219 1.22484375 -0.23507812 0.6215625 0 0 Z " fill="#948AC3" transform="translate(406,10)"/>
<path d="M0 0 C4 0 4 0 6 1 C5.67 1.66 5.34 2.32 5 3 C5.40990792 6.27926335 5.62216162 7.62216162 8 10 C7.67 10.66 7.34 11.32 7 12 C6.01 12 5.02 12 4 12 C3.67 10.35 3.34 8.7 3 7 C1.68 6.67 0.36 6.34 -1 6 C-1.042721 4.33388095 -1.04063832 2.66617115 -1 1 C-0.67 0.67 -0.34 0.34 0 0 Z " fill="#9388BD" transform="translate(257,14)"/>
<path d="M0 0 C1.65 0.99 3.3 1.98 5 3 C4.67 3.99 4.34 4.98 4 6 C3.01 6.33 2.02 6.66 1 7 C1 7.99 1 8.98 1 10 C-1.31 10.33 -3.62 10.66 -6 11 C-6 10.01 -6 9.02 -6 8 C-5.01 8 -4.02 8 -3 8 C-2.67 7.01 -2.34 6.02 -2 5 C-2.66 4.67 -3.32 4.34 -4 4 C-2.68 3.67 -1.36 3.34 0 3 C0 2.01 0 1.02 0 0 Z " fill="#A09BC8" transform="translate(278,43)"/>
<path d="M0 0 C0.33 0.66 0.66 1.32 1 2 C1.66 2 2.32 2 3 2 C3.33 3.98 3.66 5.96 4 8 C6.31 8.66 8.62 9.32 11 10 C10.67 10.99 10.34 11.98 10 13 C7.5625 12.625 7.5625 12.625 5 12 C4.67 11.34 4.34 10.68 4 10 C1.98330173 8.86649466 1.98330173 8.86649466 0 8 C0 5.36 0 2.72 0 0 Z " fill="#B993BE" transform="translate(250,14)"/>
<path d="M0 0 C1.32 1.32 2.64 2.64 4 4 C4.99 3.67 5.98 3.34 7 3 C7 3.66 7 4.32 7 5 C7.99 5.33 8.98 5.66 10 6 C9.67 6.66 9.34 7.32 9 8 C8.34 7.67 7.68 7.34 7 7 C7 7.66 7 8.32 7 9 C5.35 9.33 3.7 9.66 2 10 C2 8.68 2 7.36 2 6 C1.34 6 0.68 6 0 6 C0 4.02 0 2.04 0 0 Z " fill="#A19AC5" transform="translate(317,41)"/>
<path d="M0 0 C1.32 0.33 2.64 0.66 4 1 C2.68 1.33 1.36 1.66 0 2 C-0.66 4.31 -1.32 6.62 -2 9 C-1.34 9.33 -0.68 9.66 0 10 C-2.3125 12.5 -2.3125 12.5 -5 15 C-5.99 15 -6.98 15 -8 15 C-8 14.34 -8 13.68 -8 13 C-7.34 13 -6.68 13 -6 13 C-5.938125 12.34 -5.87625 11.68 -5.8125 11 C-4.67863503 6.81342164 -2.40368936 3.57449008 0 0 Z " fill="#9692C6" transform="translate(387,13)"/>
<path d="M0 0 C0.99 0.33 1.98 0.66 3 1 C3.33 4.3 3.66 7.6 4 11 C0.75791433 10.64950425 -0.61527704 10.43778819 -2.8125 7.9375 C-3.204375 7.298125 -3.59625 6.65875 -4 6 C-2.68 5.67 -1.36 5.34 0 5 C0 3.35 0 1.7 0 0 Z " fill="#CABDD2" transform="translate(308,2)"/>
<path d="M0 0 C1.60416552 3.20833105 1.6608846 6.43928835 2 10 C1.67 10.33 1.34 10.66 1 11 C0.71125 11.66 0.4225 12.32 0.125 13 C-1 15 -1 15 -4 16 C-5 13 -5 13 -4.22265625 10.95703125 C-3.83980469 10.24933594 -3.45695313 9.54164062 -3.0625 8.8125 C-2.68222656 8.09707031 -2.30195313 7.38164063 -1.91015625 6.64453125 C-1.60980469 6.10183594 -1.30945313 5.55914062 -1 5 C-1.66 4.67 -2.32 4.34 -3 4 C-2.01 2.68 -1.02 1.36 0 0 Z " fill="#B789C4" transform="translate(205,38)"/>
<path d="M0 0 C-0.93972656 0.36351562 -0.93972656 0.36351562 -1.8984375 0.734375 C-2.71570313 1.06953125 -3.53296875 1.4046875 -4.375 1.75 C-5.59316406 2.23726562 -5.59316406 2.23726562 -6.8359375 2.734375 C-9.33315139 4.19483944 -9.98244259 5.33869601 -11 8 C-11.66 8 -12.32 8 -13 8 C-13.125 2.25 -13.125 2.25 -12 0 C-9.78515625 -0.44921875 -9.78515625 -0.44921875 -7.0625 -0.6875 C-6.16660156 -0.77386719 -5.27070313 -0.86023437 -4.34765625 -0.94921875 C-2 -1 -2 -1 0 0 Z " fill="#BEA4C6" transform="translate(260,52)"/>
<path d="M0 0 C0.99 0.33 1.98 0.66 3 1 C1.515 2.485 1.515 2.485 0 4 C0.66 4 1.32 4 2 4 C2 4.66 2 5.32 2 6 C1.01 6.495 1.01 6.495 0 7 C-0.73075648 9.3140622 -1.40138258 11.64828869 -2 14 C-2.66 13.67 -3.32 13.34 -4 13 C-3.67 11.35 -3.34 9.7 -3 8 C-3.99 8.66 -4.98 9.32 -6 10 C-6.33 9.34 -6.66 8.68 -7 8 C-5.71937515 6.2925002 -4.38232443 4.62626404 -3 3 C-2.34 3 -1.68 3 -1 3 C-0.67 2.01 -0.34 1.02 0 0 Z " fill="#AF93BF" transform="translate(217,19)"/>
<path d="M0 0 C2.7558573 4.13378595 3.10756445 6.05203546 3 11 C1.71086513 11.67154933 0.41859796 12.33708859 -0.875 13 C-1.59429687 13.37125 -2.31359375 13.7425 -3.0546875 14.125 C-5 15 -5 15 -7 15 C-7 14.34 -7 13.68 -7 13 C-4.36 11.68 -1.72 10.36 1 9 C1 8.34 1 7.68 1 7 C0.34 6.67 -0.32 6.34 -1 6 C-1 5.34 -1 4.68 -1 4 C-1.66 3.67 -2.32 3.34 -3 3 C-2.34 3 -1.68 3 -1 3 C-0.67 2.01 -0.34 1.02 0 0 Z " fill="#BCA5C7" transform="translate(325,40)"/>
<path d="M0 0 C0.33 0.66 0.66 1.32 1 2 C2.32 2 3.64 2 5 2 C4.34 3.65 3.68 5.3 3 7 C2.01 6.67 1.02 6.34 0 6 C-0.33 5.34 -0.66 4.68 -1 4 C-2.65 4.33 -4.3 4.66 -6 5 C-6 4.01 -6 3.02 -6 2 C-4.02 1.34 -2.04 0.68 0 0 Z " fill="#C3A4D7" transform="translate(197,41)"/>
<path d="M0 0 C-0.375 2.4375 -0.375 2.4375 -1 5 C-3.95664519 6.4783226 -6.74229737 6.06032783 -10 6 C-9.67 4.68 -9.34 3.36 -9 2 C-2.25 0 -2.25 0 0 0 Z " fill="#6D70BB" transform="translate(325,53)"/>
<path d="M0 0 C1.93627769 -0.10807131 3.87427756 -0.1856225 5.8125 -0.25 C7.43091797 -0.31960937 7.43091797 -0.31960937 9.08203125 -0.390625 C12 0 12 0 13.88671875 2.015625 C14.25410156 2.67046875 14.62148438 3.3253125 15 4 C13.1875 5.0625 13.1875 5.0625 11 6 C10.01 5.67 9.02 5.34 8 5 C7.3125 2.9375 7.3125 2.9375 7 1 C4.69 1.33 2.38 1.66 0 2 C0 1.34 0 0.68 0 0 Z " fill="#B997BE" transform="translate(284,0)"/>
<path d="M0 0 C2.97 0 5.94 0 9 0 C9 0.99 9 1.98 9 3 C5.77208445 5.1519437 4.71599191 5.20086443 1 5 C0.67 3.35 0.34 1.7 0 0 Z " fill="#9987BE" transform="translate(227,0)"/>
<path d="M0 0 C0 0.99 0 1.98 0 3 C-0.99 3 -1.98 3 -3 3 C-2.79375 3.928125 -2.5875 4.85625 -2.375 5.8125 C-2 9 -2 9 -4 12 C-4.99 11.67 -5.98 11.34 -7 11 C-6.67 8.03 -6.34 5.06 -6 2 C-4.02 1.34 -2.04 0.68 0 0 Z " fill="#998DC1" transform="translate(342,40)"/>
<path d="M0 0 C0 0.66 0 1.32 0 2 C0.639375 2.103125 1.27875 2.20625 1.9375 2.3125 C2.618125 2.539375 3.29875 2.76625 4 3 C4.33 3.99 4.66 4.98 5 6 C4.34 6.66 3.68 7.32 3 8 C1.824375 7.0409375 1.824375 7.0409375 0.625 6.0625 C-2.30594462 3.75961494 -4.4292605 2.83317255 -8 2 C-4.91190305 0.23537317 -3.76687864 0 0 0 Z " fill="#B2ABCD" transform="translate(305,30)"/>
<path d="M0 0 C3.63 0.33 7.26 0.66 11 1 C11.33 2.32 11.66 3.64 12 5 C7.04230204 5.29162929 3.97193147 5.12940055 0 2 C0 1.34 0 0.68 0 0 Z " fill="#C7C1D7" transform="translate(345,17)"/>
<path d="M0 0 C0.99 0 1.98 0 3 0 C4.05771739 1.63064764 5.05273046 3.30280873 6 5 C6.556875 5.433125 7.11375 5.86625 7.6875 6.3125 C9.93648735 9.20405516 9.1750168 12.44132511 9 16 C5.66620177 13.30121096 4.58656708 9.90031075 3 6 C2.01462479 3.9927542 1.01936943 1.99019747 0 0 Z " fill="#A38EC1" transform="translate(401,0)"/>
<path d="M0 0 C0.99 0.33 1.98 0.66 3 1 C4.85026394 5.71817304 5.19884975 9.08471601 4 14 C1.3184721 10.92307254 0.57912193 8.80265337 0.3125 4.75 C0.24675781 3.85796875 0.18101562 2.9659375 0.11328125 2.046875 C0.07589844 1.37140625 0.03851563 0.6959375 0 0 Z " fill="#9793C2" transform="translate(228,34)"/>
<path d="M0 0 C2.97 1.98 2.97 1.98 6 4 C6.66 3.67 7.32 3.34 8 3 C8 4.65 8 6.3 8 8 C4.62537285 7.45276317 2.91765 6.9451 0 5 C-0.1875 2.375 -0.1875 2.375 0 0 Z " fill="#A49BC9" transform="translate(290,11)"/>
<path d="M0 0 C1.0625 1.8125 1.0625 1.8125 2 4 C1.67 4.99 1.34 5.98 1 7 C-1.31 7 -3.62 7 -6 7 C-6 6.34 -6 5.68 -6 5 C-5.34 5 -4.68 5 -4 5 C-3.67 3.68 -3.34 2.36 -3 1 C-2.01 1.33 -1.02 1.66 0 2 C0 1.34 0 0.68 0 0 Z " fill="#ADA4C9" transform="translate(366,32)"/>
<path d="M0 0 C2 0 2 0 3.625 1.375 C5 3 5 3 5 5 C5.66 5 6.32 5 7 5 C7 6.32 7 7.64 7 9 C6.01 9 5.02 9 4 9 C3.67 7.68 3.34 6.36 3 5 C2.01 5 1.02 5 0 5 C-0.5625 3.0625 -0.5625 3.0625 -1 1 C-0.67 0.67 -0.34 0.34 0 0 Z " fill="#BBB1D3" transform="translate(332,20)"/>
<path d="M0 0 C0.99 0 1.98 0 3 0 C3 0.99 3 1.98 3 3 C5.475 3.99 5.475 3.99 8 5 C8 5.66 8 6.32 8 7 C5.69 6.67 3.38 6.34 1 6 C1 5.01 1 4.02 1 3 C0.01 2.67 -0.98 2.34 -2 2 C-1.34 1.34 -0.68 0.68 0 0 Z " fill="#B0A3CC" transform="translate(167,47)"/>
<path d="M0 0 C1.98 0 3.96 0 6 0 C6.33 1.98 6.66 3.96 7 6 C6.67 5.01 6.34 4.02 6 3 C5.34 3 4.68 3 4 3 C4.33 4.65 4.66 6.3 5 8 C4.34 8 3.68 8 3 8 C0 2.25 0 2.25 0 0 Z " fill="#8D82B8" transform="translate(262,0)"/>
<path d="M0 0 C0.66 0 1.32 0 2 0 C2.4125 0.763125 2.825 1.52625 3.25 2.3125 C5.38615181 5.59301885 7.44579683 6.49933644 11 8 C11 8.33 11 8.66 11 9 C9.35 9 7.7 9 6 9 C6 8.34 6 7.68 6 7 C4.35 6.67 2.7 6.34 1 6 C0.67 4.02 0.34 2.04 0 0 Z " fill="#A297D1" transform="translate(234,51)"/>
<path d="M0 0 C3.91402949 1.26941497 5.79072873 2.51167694 8 6 C6 6 4 6 2 6 C1.67 5.34 1.34 4.68 1 4 C0.34 4 -0.32 4 -1 4 C-0.67 2.68 -0.34 1.36 0 0 Z " fill="#A299C5" transform="translate(284,28)"/>
<path d="M0 0 C2.97 0 5.94 0 9 0 C8.01 1.485 8.01 1.485 7 3 C6.34 2.67 5.68 2.34 5 2 C5.33 3.65 5.66 5.3 6 7 C5.01 7.66 4.02 8.32 3 9 C2.8046875 6.94921875 2.609375 4.8984375 2.4140625 2.84765625 C2.27742188 2.23792969 2.14078125 1.62820312 2 1 C1.34 0.67 0.68 0.34 0 0 Z " fill="#9A9ACC" transform="translate(388,0)"/>
<path d="M0 0 C1.485 0.99 1.485 0.99 3 2 C2.01 2 1.02 2 0 2 C0 1.34 0 0.68 0 0 Z M-1 2 C0 4 0 4 0 7 C-0.33 7.66 -0.66 8.32 -1 9 C-1.99 9 -2.98 9 -4 9 C-4.33 9.99 -4.66 10.98 -5 12 C-5.66 11.67 -6.32 11.34 -7 11 C-6.34 9.68 -5.68 8.36 -5 7 C-4.34 7 -3.68 7 -3 7 C-2.855625 6.360625 -2.71125 5.72125 -2.5625 5.0625 C-2 3 -2 3 -1 2 Z " fill="#8582BD" transform="translate(263,48)"/>
<path d="M0 0 C0 0.66 0 1.32 0 2 C-0.66 2 -1.32 2 -2 2 C-2.33 4.97 -2.66 7.94 -3 11 C-4.32 10.67 -5.64 10.34 -7 10 C-6.67 8.35 -6.34 6.7 -6 5 C-5.34 5 -4.68 5 -4 5 C-4.33 4.01 -4.66 3.02 -5 2 C-2 0 -2 0 0 0 Z " fill="#8985BE" transform="translate(249,16)"/>
<path d="M0 0 C1.32 0 2.64 0 4 0 C4 0.66 4 1.32 4 2 C3.34 2 2.68 2 2 2 C2.99 3.485 2.99 3.485 4 5 C4.33 5.66 4.66 6.32 5 7 C4.34 7 3.68 7 3 7 C3 7.99 3 8.98 3 10 C2.34 10 1.68 10 1 10 C1 9.01 1 8.02 1 7 C0.34 6.67 -0.32 6.34 -1 6 C-0.67 5.67 -0.34 5.34 0 5 C0.04063832 3.33382885 0.042721 1.66611905 0 0 Z " fill="#9285B6" transform="translate(285,2)"/>
<path d="M0 0 C3.5218253 1.95656961 6.34442785 3.95100975 9 7 C9 7.66 9 8.32 9 9 C8.34 9 7.68 9 7 9 C7 8.34 7 7.68 7 7 C6.01 6.67 5.02 6.34 4 6 C4 5.34 4 4.68 4 4 C2.68 4.33 1.36 4.66 0 5 C0 3.35 0 1.7 0 0 Z " fill="#ABA4CA" transform="translate(330,16)"/>
<path d="M0 0 C2.97 0.495 2.97 0.495 6 1 C5.34 1.66 4.68 2.32 4 3 C3.3574765 5.06874034 3.3574765 5.06874034 3 7 C1.68 7 0.36 7 -1 7 C-0.67 4.69 -0.34 2.38 0 0 Z " fill="#8A83BF" transform="translate(298,54)"/>
<path d="M0 0 C0.99 0 1.98 0 3 0 C2.49396008 2.16874252 2.00016187 3.99967627 1 6 C-0.65 5.67 -2.3 5.34 -4 5 C-3.67 4.01 -3.34 3.02 -3 2 C-2.34 2 -1.68 2 -1 2 C-0.67 1.34 -0.34 0.68 0 0 Z " fill="#9D8EBF" transform="translate(246,29)"/>
<path d="M0 0 C0.66 0 1.32 0 2 0 C2.33 0.66 2.66 1.32 3 2 C3.66 2 4.32 2 5 2 C4.67 2.99 4.34 3.98 4 5 C3.34 4.67 2.68 4.34 2 4 C1.67 5.65 1.34 7.3 1 9 C0.67 8.01 0.34 7.02 0 6 C-0.99 6.33 -1.98 6.66 -3 7 C-3 6.34 -3 5.68 -3 5 C-2.01 4.34 -1.02 3.68 0 3 C0 2.01 0 1.02 0 0 Z " fill="#A39DC7" transform="translate(163,15)"/>
<path d="M0 0 C1.98 0 3.96 0 6 0 C6.33 2.31 6.66 4.62 7 7 C5.83040013 6.02433888 4.66438823 5.044375 3.5 4.0625 C2.8503125 3.51722656 2.200625 2.97195312 1.53125 2.41015625 C1.0259375 1.94480469 0.520625 1.47945313 0 1 C0 0.67 0 0.34 0 0 Z " fill="#AA97BE" transform="translate(273,0)"/>
<path d="M0 0 C1.65 0 3.3 0 5 0 C5 0.66 5 1.32 5 2 C5.66 2 6.32 2 7 2 C7.33 1.34 7.66 0.68 8 0 C9.32 1.65 10.64 3.3 12 5 C7.80530429 4.40075776 3.99000166 3.42500059 0 2 C0 1.34 0 0.68 0 0 Z " fill="#B5A6D8" transform="translate(224,53)"/>
<path d="M0 0 C1.98 0 3.96 0 6 0 C6 0.66 6 1.32 6 2 C7.32 2.66 8.64 3.32 10 4 C9.34 4.66 8.68 5.32 8 6 C7.236875 5.34 6.47375 4.68 5.6875 4 C3.15722061 1.70149462 3.15722061 1.70149462 0 2 C0 1.34 0 0.68 0 0 Z " fill="#C0A1CF" transform="translate(206,44)"/>
<path d="M0 0 C0.99 0.33 1.98 0.66 3 1 C3 1.33 3 1.66 3 2 C3.33 2 3.66 2 4 2 C4 3.65 4 5.3 4 7 C2.68 7 1.36 7 0 7 C0 4.69 0 2.38 0 0 Z " fill="#9D99C9" transform="translate(239,10)"/>
<path d="M0 0 C2.31 0.33 4.62 0.66 7 1 C7 1.66 7 2.32 7 3 C5.02 3.99 5.02 3.99 3 5 C1.5 3.625 1.5 3.625 0 2 C0 1.34 0 0.68 0 0 Z " fill="#A8A4C9" transform="translate(309,38)"/>
<path d="M0 0 C6.75 1.75 6.75 1.75 9 4 C8.67 4.66 8.34 5.32 8 6 C5.21788056 5.62403791 3.4120716 5.32681541 1.1875 3.5625 C0 2 0 2 0 0 Z " fill="#AE8FBC" transform="translate(252,21)"/>
<path d="M0 0 C0.33 0.66 0.66 1.32 1 2 C4.02934491 2.65772428 4.02934491 2.65772428 7 3 C7 3.66 7 4.32 7 5 C7.66 5.33 8.32 5.66 9 6 C7.53984709 5.71758359 6.08190207 5.42373386 4.625 5.125 C3.81289062 4.96257813 3.00078125 4.80015625 2.1640625 4.6328125 C0 4 0 4 -2 2 C-1.34 2 -0.68 2 0 2 C0 1.34 0 0.68 0 0 Z " fill="#BFA2CA" transform="translate(141,59)"/>
<path d="M0 0 C0.99 0.33 1.98 0.66 3 1 C2.34 1 1.68 1 1 1 C1 1.66 1 2.32 1 3 C-1.97 4.32 -4.94 5.64 -8 7 C-7 4 -7 4 -4 2 C-2.68 2 -1.36 2 0 2 C0 1.34 0 0.68 0 0 Z " fill="#C89BDB" transform="translate(207,54)"/>
<path d="M0 0 C0.33 0.99 0.66 1.98 1 3 C3.01508358 3.73323796 3.01508358 3.73323796 5 4 C4.01 4.99 3.02 5.98 2 7 C0.68 6.01 -0.64 5.02 -2 4 C-1.34 2.68 -0.68 1.36 0 0 Z " fill="#A499C8" transform="translate(282,36)"/>
<path d="M0 0 C0.66 0 1.32 0 2 0 C2 2.31 2 4.62 2 7 C1.01 7.33 0.02 7.66 -1 8 C-1.93065133 5.39417629 -2.14917407 4.35801776 -1.0625 1.75 C-0.711875 1.1725 -0.36125 0.595 0 0 Z " fill="#7E7AB2" transform="translate(247,18)"/>
<path d="M0 0 C0.99 0 1.98 0 3 0 C2.58578031 4.83256305 0.53586014 6.82679218 -3 10 C-2.05066101 6.64566891 -1.10251165 3.30753495 0 0 Z " fill="#7873B9" transform="translate(402,14)"/>
<path d="M0 0 C0.804375 0.4640625 0.804375 0.4640625 1.625 0.9375 C4.3984957 2.17827439 7.00042837 2.5909675 10 3 C9.01 4.485 9.01 4.485 8 6 C7.34 6 6.68 6 6 6 C6 5.34 6 4.68 6 4 C4.35 3.67 2.7 3.34 1 3 C0.67 2.01 0.34 1.02 0 0 Z " fill="#A697C8" transform="translate(370,36)"/>
<path d="M0 0 C-5.75 4 -5.75 4 -8 4 C-8 3.01 -8 2.02 -8 1 C-4.93251126 -0.86240388 -3.40254489 -1.2151946 0 0 Z " fill="#BCAADF" transform="translate(390,35)"/>
<path d="M0 0 C1 2 1 2 0.875 3.9375 C-0.3582873 6.84453436 -2.25745971 7.59356908 -5 9 C-3.90931332 5.22454612 -3.0916909 2.52956528 0 0 Z " fill="#967FAA" transform="translate(214,26)"/>
<path d="M0 0 C0.99 0.99 1.98 1.98 3 3 C2.01 4.485 2.01 4.485 1 6 C0.01 6 -0.98 6 -2 6 C-1.125 1.125 -1.125 1.125 0 0 Z " fill="#B3A7C7" transform="translate(138,37)"/>
<path d="M0 0 C2 3 2 3 1.625 5.1875 C1.41875 5.785625 1.2125 6.38375 1 7 C1.66 7.33 2.32 7.66 3 8 C2.34 8 1.68 8 1 8 C0.67 8.66 0.34 9.32 0 10 C-0.66 9.67 -1.32 9.34 -2 9 C-2 8.01 -2 7.02 -2 6 C-1.34 6 -0.68 6 0 6 C0 4.02 0 2.04 0 0 Z " fill="#B494C6" transform="translate(410,10)"/>
<path d="M0 0 C1.32 0 2.64 0 4 0 C4 0.99 4 1.98 4 3 C4.66 3.33 5.32 3.66 6 4 C5.01 4.33 4.02 4.66 3 5 C1.5 3.625 1.5 3.625 0 2 C0 1.34 0 0.68 0 0 Z " fill="#9D92C5" transform="translate(158,50)"/>
<path d="M0 0 C1.0625 1.875 1.0625 1.875 2 4 C1.67 4.66 1.34 5.32 1 6 C1.99 6 2.98 6 4 6 C3.67 7.32 3.34 8.64 3 10 C0.9375 8.375 0.9375 8.375 -1 6 C-0.75 2.75 -0.75 2.75 0 0 Z " fill="#817DB5" transform="translate(241,20)"/>
<path d="M0 0 C1.65 0.33 3.3 0.66 5 1 C4.34 2.32 3.68 3.64 3 5 C1.68 4.34 0.36 3.68 -1 3 C-0.67 2.01 -0.34 1.02 0 0 Z " fill="#8685C1" transform="translate(281,55)"/>
<path d="M0 0 C2.125 0.9375 2.125 0.9375 4 2 C3.34 2.66 2.68 3.32 2 4 C1.34 4 0.68 4 0 4 C-0.99 4.33 -1.98 4.66 -3 5 C-2.625 3.0625 -2.625 3.0625 -2 1 C-1.34 0.67 -0.68 0.34 0 0 Z " fill="#C2A9CE" transform="translate(344,41)"/>
<path d="M0 0 C1.485 0.99 1.485 0.99 3 2 C3 3.32 3 4.64 3 6 C1.68 6 0.36 6 -1 6 C-1.042721 4.33388095 -1.04063832 2.66617115 -1 1 C-0.67 0.67 -0.34 0.34 0 0 Z " fill="#8D81B9" transform="translate(406,10)"/>
</svg>
